<?xml version="1.0" standalone="no"?>
<!DOCTYPE svg PUBLIC "-//W3C//DTD SVG 20010904//EN"
 "http://www.w3.org/TR/2001/REC-SVG-20010904/DTD/svg10.dtd">
<svg version="1.0" xmlns="http://www.w3.org/2000/svg"
 width="348.000000pt" height="348.000000pt" viewBox="0 0 348.000000 348.000000"
 preserveAspectRatio="xMidYMid meet">
<metadata>
Created by potrace 1.14, written by Peter Selinger 2001-2017
</metadata>
<g transform="translate(0.000000,348.000000) scale(0.100000,-0.100000)"
fill="#000000" stroke="none">
<path d="M1667 3394 c-2 -3 -25 -5 -51 -6 -25 0 -48 -4 -51 -8 -2 -4 -16 -5
-30 -2 -14 2 -25 0 -25 -5 0 -5 -10 -9 -22 -8 -13 1 -32 -3 -43 -9 -11 -5 -22
-11 -25 -11 -115 -20 -332 -172 -438 -308 -35 -46 -74 -192 -55 -211 4 -4 8
-15 8 -24 1 -9 2 -26 3 -38 1 -11 26 -45 56 -75 57 -59 61 -67 71 -143 3 -27
8 -52 10 -56 5 -9 14 -55 22 -111 5 -44 4 -47 -23 -61 -29 -13 -29 -13 -27
-100 2 -48 10 -117 18 -155 19 -84 23 -107 30 -158 5 -41 12 -80 15 -80 1 0 3
-9 5 -20 11 -65 15 -83 25 -115 15 -52 13 -58 -24 -71 -22 -8 -37 -21 -40 -35
-8 -31 -43 -64 -95 -90 -27 -14 -50 -35 -64 -61 -29 -52 -62 -93 -76 -93 -6 0
-11 -4 -11 -9 0 -16 -61 -71 -86 -77 -13 -3 -41 -15 -61 -25 -21 -10 -48 -19
-61 -19 -23 0 -58 -29 -182 -150 -47 -46 -90 -111 -79 -122 1 -2 -3 -12 -9
-23 -5 -12 -13 -39 -16 -61 -4 -22 -9 -51 -12 -64 -3 -14 -7 -36 -10 -50 -3
-14 -10 -45 -15 -69 -5 -24 -8 -46 -5 -48 2 -2 -2 -28 -9 -56 -13 -49 -23
-103 -31 -172 -2 -16 -6 -76 -8 -132 -5 -96 -8 -136 -22 -225 l-6 -38 1551 0
1551 0 0 363 0 362 -37 33 c-66 57 -91 72 -122 72 -18 0 -20 5 -14 47 4 42 2
52 -20 75 -14 15 -23 29 -21 31 3 3 -9 16 -27 31 -20 17 -35 41 -41 68 -8 40
-55 98 -78 98 -10 0 -7 51 5 81 3 10 2 20 -4 24 -6 3 -11 14 -11 24 0 37 -30
50 -120 49 -47 0 -110 7 -142 16 -31 8 -67 17 -80 20 -27 5 -111 37 -118 45
-3 3 -16 11 -30 17 -83 37 -102 44 -109 39 -13 -7 -61 45 -61 66 0 11 4 27 9
37 12 21 24 54 25 67 1 5 19 21 41 37 22 15 39 32 37 38 -1 5 2 10 8 10 5 0
10 10 10 22 0 13 10 47 21 78 12 30 32 82 45 115 13 33 26 80 28 105 3 25 8
58 11 73 6 29 -12 57 -37 57 -33 0 -36 21 -13 89 13 36 31 95 40 129 9 35 20
71 25 80 24 44 38 112 34 163 -3 30 -9 56 -15 57 -5 2 -7 8 -3 13 7 12 -31
123 -61 174 -13 22 -33 56 -44 76 -11 20 -41 57 -66 83 -26 25 -44 46 -41 46
4 0 -12 17 -35 38 -22 20 -63 59 -90 87 -27 27 -49 47 -49 42 0 -4 -9 2 -20
13 -23 23 -87 52 -109 48 -9 -1 -32 2 -51 7 -44 11 -42 11 -60 17 -24 10 -80
19 -140 24 -30 2 -69 6 -87 8 -17 3 -33 2 -36 0z"/>
</g>
</svg>
