<?xml version="1.0" standalone="no"?>
<!DOCTYPE svg PUBLIC "-//W3C//DTD SVG 20010904//EN"
 "http://www.w3.org/TR/2001/REC-SVG-20010904/DTD/svg10.dtd">
<svg version="1.0" xmlns="http://www.w3.org/2000/svg"
 width="500.000000pt" height="500.000000pt" viewBox="0 0 500.000000 500.000000"
 preserveAspectRatio="xMidYMid meet">
<metadata>
Created by potrace 1.14, written by Peter Selinger 2001-2017
</metadata>
<g transform="translate(0.000000,500.000000) scale(0.100000,-0.100000)"
fill="#000000" stroke="none">
<path d="M1994 4498 c-3 -5 -13 -8 -22 -8 -9 0 -44 -12 -77 -26 -33 -14 -66
-26 -72 -27 -7 0 -13 -4 -13 -9 0 -4 -4 -8 -9 -8 -30 0 -84 -50 -108 -101 -26
-53 -29 -56 -67 -57 -23 -1 -46 4 -56 13 -9 8 -29 16 -45 17 -19 2 -45 19 -77
51 -45 45 -52 49 -86 44 -36 -5 -77 -14 -77 -17 0 -1 -8 -3 -18 -5 -10 -2 -43
-15 -73 -30 -54 -27 -83 -29 -154 -10 -37 10 -42 9 -85 -10 -22 -10 -53 -17
-69 -16 -19 2 -37 -6 -57 -25 -16 -15 -37 -29 -46 -30 -10 -2 -39 -26 -66 -53
-40 -42 -49 -58 -52 -93 -2 -23 1 -53 6 -66 14 -37 22 -84 20 -125 -2 -33 22
-103 39 -117 14 -11 55 -86 57 -105 3 -21 9 -54 17 -95 2 -14 7 -50 10 -80 4
-30 8 -68 11 -85 3 -16 7 -46 10 -65 2 -19 7 -46 9 -60 2 -14 7 -61 10 -105 4
-44 9 -93 11 -110 3 -16 7 -61 10 -98 2 -37 6 -71 9 -75 2 -4 7 -29 10 -57 11
-100 42 -166 109 -238 32 -33 47 -59 52 -87 6 -38 10 -41 90 -79 57 -27 98
-56 130 -89 26 -27 48 -54 49 -58 0 -5 -15 -10 -34 -10 -19 -1 -69 -5 -110 -8
-41 -4 -97 -9 -125 -11 -79 -6 -177 -15 -215 -20 -19 -2 -73 -7 -120 -10 -161
-12 -185 -14 -214 -19 -37 -7 -40 -10 -40 -51 0 -23 7 -41 22 -53 12 -11 22
-24 22 -30 0 -6 4 -12 8 -14 5 -1 39 -43 77 -93 38 -49 75 -96 82 -103 7 -7
13 -18 13 -23 0 -5 11 -21 25 -36 14 -16 68 -84 120 -153 52 -69 98 -129 103
-135 28 -36 121 -157 142 -185 14 -18 31 -39 38 -46 6 -7 12 -15 12 -18 0 -3
9 -16 19 -28 11 -13 38 -47 60 -75 46 -59 49 -60 154 -48 32 3 95 8 140 10 45
2 82 5 82 6 0 1 34 3 75 4 41 2 75 4 75 5 0 1 20 3 45 5 151 12 200 16 245 20
28 3 82 7 120 10 39 3 88 7 110 10 22 3 72 7 110 9 39 3 98 7 133 10 34 4 89
8 123 11 33 2 64 7 70 10 5 4 9 2 9 -4 0 -7 8 -7 23 -2 12 4 47 9 78 10 30 1
66 4 80 7 13 2 69 7 124 10 115 6 132 8 141 16 3 4 16 3 29 -2 13 -5 25 -6 28
-3 3 3 23 6 44 8 84 7 190 16 233 20 69 7 187 16 268 20 40 2 100 6 135 10 34
3 91 8 127 11 36 3 90 7 120 9 30 3 87 7 125 9 39 3 90 8 115 12 25 3 70 8
100 10 137 8 205 13 205 15 0 1 43 4 112 8 22 1 39 32 34 61 -2 13 -47 86 -61
100 -6 6 -118 170 -143 211 -11 16 -23 29 -28 29 -5 0 -9 6 -9 13 0 7 -8 22
-19 33 -10 11 -22 30 -25 42 -4 12 -11 22 -16 22 -4 0 -20 20 -34 44 -14 25
-32 51 -39 58 -14 15 -84 116 -135 195 -19 29 -39 53 -43 53 -5 0 -9 6 -9 14
0 8 -6 21 -13 28 -6 7 -39 52 -71 101 -33 48 -66 92 -73 99 -15 12 -53 19 -53
9 0 -3 -24 -6 -53 -7 -52 -1 -212 -11 -212 -14 0 -2 -87 -9 -175 -15 -41 -3
-92 -7 -113 -9 -42 -5 -44 -2 -51 59 -5 40 -21 153 -32 230 -4 22 -8 51 -9 65
-2 14 -9 52 -15 85 -12 65 -18 107 -26 170 -9 74 -12 91 -24 150 -7 32 -14 75
-16 94 -6 51 -12 92 -18 118 -5 26 -23 60 -28 55 -2 -2 -16 2 -33 8 -16 7 -37
13 -45 15 -17 3 -70 -22 -70 -33 0 -4 -11 -14 -23 -23 -23 -17 -23 -16 -25 15
-2 40 -6 58 -15 74 -5 6 -6 12 -2 12 11 0 -24 56 -59 96 -20 21 -36 42 -36 46
0 7 176 2 217 -6 13 -3 67 -8 120 -11 54 -3 123 -8 153 -11 30 -2 99 -7 153
-10 l98 -6 77 38 c42 22 79 42 82 45 3 3 17 9 32 12 15 4 34 14 42 23 9 8 16
13 16 9 0 -3 12 2 28 12 15 11 57 34 95 52 37 19 67 38 67 44 0 5 6 7 14 4 8
-3 18 5 25 20 9 21 9 30 -4 49 -8 13 -23 24 -33 25 -9 0 -102 2 -207 4 -104 2
-221 6 -260 10 -38 4 -124 9 -190 11 -66 2 -151 6 -190 8 -195 12 -325 18
-475 22 -242 6 -260 7 -261 19 -1 5 -3 19 -4 30 -3 28 -39 96 -70 133 -14 16
-25 32 -25 35 0 6 -40 52 -123 142 -53 56 -78 75 -110 83 -46 12 -236 11 -243
0z"/>
</g>
</svg>
